<?xml version="1.0" encoding="UTF-8" standalone="no"?><!DOCTYPE svg PUBLIC "-//W3C//DTD SVG 1.1//EN"
        "http://www.w3.org/Graphics/SVG/1.1/DTD/svg11.dtd">
<svg width="100%" height="100%" viewBox="0 0 159 159" version="1.1" xmlns="http://www.w3.org/2000/svg"
     xml:space="preserve"
     style="fill-rule:evenodd;clip-rule:evenodd;stroke-linejoin:round;stroke-miterlimit:2;"><rect id="Artboard1" x="0" y="0" width="158.333" height="158.333" style="fill:#1739ee;"/>
    <path d="M83.732,54.028c1.207,-1.207 1.207,-2.866 -0,-4.073l-22.628,-22.176c-1.207,-1.207 -3.018,-1.207 -4.224,0l-22.629,22.176c-1.206,1.207 -1.206,2.866 0,4.073l4.224,4.073c1.207,1.207 3.017,1.207 4.224,-0l7.09,-6.939c1.207,-1.207 3.319,-0.302 3.319,1.357l0,40.731c0,1.508 1.358,3.017 3.017,3.017l6.035,0c1.659,0 3.017,-1.659 3.017,-3.017l-0,-40.731c-0,-1.81 2.112,-2.564 3.318,-1.357l7.091,6.939c1.206,1.207 3.017,1.207 4.223,-0l3.923,-4.073Z"
          style="fill:#fff;fill-rule:nonzero;"/>
    <path d="M66.304,108.288c-1.208,1.207 -1.208,2.866 -0.002,4.073l22.621,22.184c1.206,1.207 3.016,1.208 4.224,0.001l22.635,-22.168c1.208,-1.206 1.208,-2.865 0.002,-4.073l-4.223,-4.074c-1.206,-1.207 -3.016,-1.208 -4.224,-0.002l-7.092,6.937c-1.207,1.207 -3.319,0.301 -3.318,-1.359l0.014,-40.73c0,-1.509 -1.357,-3.018 -3.016,-3.018l-6.035,-0.002c-1.659,-0.001 -3.017,1.658 -3.018,3.016l-0.014,40.73c-0,1.811 -2.113,2.564 -3.319,1.357l-7.088,-6.942c-1.206,-1.207 -3.017,-1.208 -4.224,-0.001l-3.923,4.071Z"
          style="fill:#fff;fill-rule:nonzero;"/>
    <text x="92.953px" y="64.159px" style="font-family:'Enliven';font-size:70.559px;fill:#fff;">+</text></svg>